# xmcd CD database file
#
# Track frame offsets:
#	183
#	8813
#	19298
#	29468
#	42150
#	53738
#	65338
#	78105
#	87165
#	95963
#	107885
#	116115
#	125340
#	135475
#
# Disc length: 2031 seconds
#
# Revision: 0
# Processed by: cddbd v1.4PL0 Copyright (c) Steve Scherf et al.
# Submitted via: Feurio! 1.65.3ß - http://www.feurio.com
#
DISCID=b507ed0e
DTITLE=Banjo-Express - Banjo-Express
DYEAR=1900
DGENRE=Country
TTITLE0=The Humours Of Little Maggie
TTITLE1=Cheyenne
TTITLE2=Foggy Mountain Breakdown
TTITLE3=Rattlesnake
TTITLE4=Jesse James
TTITLE5=Colored Aristocracy
TTITLE6=Wind And Warm
TTITLE7=Eight Of January
TTITLE8=Double Eagle
TTITLE9=Buffalo Gals
TTITLE10=Lost Indian
TTITLE11=Little Maggie
TTITLE12=Old Molly Hair
TTITLE13=King William´s March
EXTD=
EXTT0=
EXTT1=
EXTT2=
EXTT3=
EXTT4=
EXTT5=
EXTT6=
EXTT7=
EXTT8=
EXTT9=
EXTT10=
EXTT11=
EXTT12=
EXTT13=
PLAYORDER=
